<?xml version="1.0" encoding="UTF-8" standalone="no"?>
<!-- Generator: Adobe Illustrator 11 Build 196, SVG Export Plug-In . SVG Version: 6.0.0 Build 78)  -->

<svg
  width="700"
  height="280"
  enable-background="new 0 0 582.92 235.27"
  overflow="visible"
  version="1.0"
  viewBox="0 0 582.9 235.3"
  id="svg2578"
  sodipodi:docname="python-powered-trans.svg"
  inkscape:version="1.2.1 (9c6d41e410, 2022-07-14)"
  xmlns:inkscape="http://www.inkscape.org/namespaces/inkscape"
  xmlns:sodipodi="http://sodipodi.sourceforge.net/DTD/sodipodi-0.dtd"
  xmlns:xlink="http://www.w3.org/1999/xlink"
  xmlns="http://www.w3.org/2000/svg"
  xmlns:svg="http://www.w3.org/2000/svg">
 <sodipodi:namedview
   id="namedview2580"
   pagecolor="#ffffff"
   bordercolor="#666666"
   borderopacity="1.0"
   inkscape:showpageshadow="false"
   inkscape:pageopacity="0.0"
   inkscape:pagecheckerboard="true"
   inkscape:deskcolor="#d1d1d1"
   showgrid="false"
   borderlayer="false"
   inkscape:zoom="0.84285714"
   inkscape:cx="52.79661"
   inkscape:cy="140"
   inkscape:window-width="1440"
   inkscape:window-height="900"
   inkscape:window-x="26"
   inkscape:window-y="23"
   inkscape:window-maximized="0"
   inkscape:current-layer="svg2578" />
 <defs
   id="defs2546">
  <linearGradient
    id="b">
   <stop
     stop-color="#366a96"
     offset="0"
     id="stop2534" />
   <stop
     stop-color="#3679b0"
     offset="1"
     id="stop2536" />
  </linearGradient>
  <linearGradient
    id="d">
   <stop
     stop-color="#ffc836"
     offset="0"
     id="stop2539" />
   <stop
     stop-color="#ffe873"
     offset="1"
     id="stop2541" />
  </linearGradient>
  <linearGradient
    id="c"
    x1="224.2"
    x2="-65.31"
    y1="144.8"
    y2="144.8"
    gradientUnits="userSpaceOnUse"
    xlink:href="#d" />
  <linearGradient
    id="a"
    x1="172.9"
    x2="26.67"
    y1="77.48"
    y2="76.31"
    gradientUnits="userSpaceOnUse"
    xlink:href="#b" />
 </defs>
 <g
   id="g2550"
   style="display:none">
  <rect
    x="-2.628"
    y="2.842e-14"
    width="588.20001"
    height="235.3"
    fill="none"
    id="rect2548" />
 </g>
 <g
   id="g2576">
  <g
    fill="#646464"
    id="g2564">
   <path
     d="m289.3 74.34c0-14.56-4.152-22.04-12.46-22.45-3.304-0.156-6.531 0.3704-9.669 1.589-2.505 0.8967-4.191 1.784-5.078 2.68v34.76c5.312 3.334 10.03 4.883 14.14 4.64 8.704-0.5751 13.06-7.642 13.06-21.22zm10.24 0.6043c0 7.398-1.735 13.54-5.224 18.42-3.889 5.527-9.279 8.373-16.17 8.529-5.195 0.1657-10.55-1.462-16.05-4.874v31.59l-8.909-3.178v-70.12c1.462-1.793 3.343-3.334 5.624-4.64 5.302-3.09 11.75-4.679 19.33-4.757l0.1267 0.1267c6.93-0.08772 12.27 2.758 16.02 8.529 3.499 5.293 5.254 12.08 5.254 20.37z"
     id="path2552" />
   <path
     d="m353.9 95.68c0 9.923-0.9942 16.79-2.983 20.62-1.998 3.821-5.8 6.872-11.41 9.143-4.552 1.793-9.474 2.768-14.76 2.934l-1.472-5.614c5.371-0.731 9.153-1.462 11.35-2.193 4.318-1.462 7.281-3.704 8.909-6.706 1.306-2.447 1.949-7.115 1.949-14.03v-2.32c-6.092 2.768-12.48 4.143-19.15 4.143-4.386 0-8.256-1.374-11.59-4.143-3.743-3.012-5.614-6.833-5.614-11.46v-37.08l8.909-3.051v37.32c0 3.987 1.287 7.057 3.86 9.211s5.907 3.187 9.991 3.109c4.084-0.08772 8.46-1.667 13.11-4.757v-43.54h8.909z"
     id="path2554" />
   <path
     d="m388.7 101.4c-1.062 0.0877-2.037 0.1267-2.934 0.1267-5.039 0-8.967-1.199-11.77-3.606-2.797-2.408-4.201-5.731-4.201-9.971v-35.09h-6.102v-5.605h6.102v-14.88l8.899-3.168v18.05h10.01v5.605h-10.01v34.85c0 3.343 0.8967 5.712 2.69 7.096 1.54 1.14 3.987 1.793 7.32 1.959z"
     id="path2556" />
   <path
     d="m442.7 100.7h-8.909v-34.39c0-3.499-0.8188-6.511-2.447-9.026-1.881-2.846-4.493-4.269-7.846-4.269-4.084 0-9.192 2.154-15.32 6.462v41.22h-8.909v-82.2l8.909-2.807v37.44c5.692-4.143 11.91-6.219 18.67-6.219 4.718 0 8.538 1.589 11.46 4.757 2.934 3.168 4.396 7.115 4.396 11.83z"
     id="path2558" />
   <path
     d="m490 72.94c0-5.595-1.062-10.21-3.178-13.87-2.515-4.454-6.423-6.803-11.71-7.047-9.767 0.5653-14.64 7.564-14.64 20.98 0 6.15 1.014 11.29 3.061 15.41 2.612 5.254 6.531 7.846 11.75 7.759 9.806-0.07798 14.71-7.817 14.71-23.23zm9.757 0.05848c0 7.963-2.037 14.59-6.102 19.88-4.474 5.926-10.65 8.899-18.54 8.899-7.817 0-13.91-2.973-18.31-8.899-3.987-5.293-5.975-11.92-5.975-19.88 0-7.486 2.154-13.78 6.462-18.91 4.552-5.439 10.54-8.168 17.93-8.168s13.42 2.729 18.06 8.168c4.308 5.127 6.462 11.42 6.462 18.91z"
     id="path2560" />
   <path
     d="m550.8 100.7h-8.909v-36.34c0-3.987-1.199-7.096-3.597-9.338-2.398-2.232-5.595-3.314-9.581-3.226-4.23 0.07798-8.256 1.462-12.08 4.143v44.76h-8.909v-45.86c5.127-3.733 9.845-6.17 14.15-7.31 4.065-1.062 7.651-1.589 10.74-1.589 2.115 0 4.104 0.2047 5.975 0.6141 3.499 0.809 6.345 2.31 8.538 4.513 2.447 2.437 3.665 5.361 3.665 8.782z"
     id="path2562" />
  </g>
  <path
    d="m77.67 47.07c0-13.62 3.653-21.03 23.82-24.56 13.69-2.4 31.25-2.7 47.63 0 12.93 2.135 23.82 11.77 23.82 24.56v44.94c0 13.18-10.57 23.98-23.82 23.98h-47.63c-16.16 0-29.79 13.78-29.79 29.36v21.56h-16.38c-13.85 0-21.92-9.988-25.3-23.96-4.57-18.78-4.376-29.96 0-47.94 3.794-15.69 15.92-23.96 29.77-23.96h65.52v-6h-47.64z"
    fill="url(#a)"
    id="path2566" />
  <path
    d="m172.9 190.9c0 13.62-11.82 20.52-23.82 23.96-18.05 5.188-32.54 4.394-47.63 0-12.6-3.67-23.82-11.17-23.82-23.96v-44.94c0-12.93 10.78-23.98 23.82-23.98h47.63c15.86 0 29.79-13.71 29.79-29.96v-20.96h17.86c13.87 0 20.4 10.31 23.82 23.96 4.764 18.97 4.976 33.16 0 47.94-4.817 14.36-9.97 23.96-23.82 23.96h-71.45v6h47.63z"
    fill="url(#c)"
    id="path2568" />
  <path
    d="m89.58 44.09c0-4.976 3.988-9 8.929-9 4.923 0 8.929 4.023 8.929 9 0 4.959-4.006 8.982-8.929 8.982-4.941 0-8.929-4.023-8.929-8.982z"
    fill="#fff"
    id="path2570" />
  <path
    d="m143.2 193.9c0-4.959 4.006-8.982 8.929-8.982 4.941 0 8.929 4.023 8.929 8.982 0 4.976-3.988 9-8.929 9-4.923 0-8.929-4.023-8.929-9z"
    fill="#fff"
    id="path2572" />
  <path
    transform="skewX(-1.061)"
    d="m293.1 179.8c-4e-5 5.817-1.374 10.64-4.123 14.48-3.068 4.346-7.319 6.584-12.75 6.711-4.091 0.1278-8.309-1.151-12.66-3.835v24.83l-6.903-2.493 0.0959-55.13c1.151-1.406 2.621-2.621 4.41-3.643 4.155-2.429 9.204-3.675 15.15-3.739l0.0959 0.0959c5.433-0.0639 9.62 2.173 12.56 6.711 2.748 4.155 4.123 9.492 4.123 16.01m-8.054-0.4794c-4e-5 -11.44-3.292-17.32-9.875-17.64-2.621-0.1278-5.177 0.2877-7.67 1.246-1.982 0.7032-3.324 1.406-4.027 2.109v27.33c4.219 2.621 7.958 3.835 11.22 3.643 6.903-0.4474 10.35-6.008 10.35-16.68m52.32-1.055c-4e-5 6.264-1.598 11.47-4.794 15.63-3.516 4.666-8.373 6.999-14.57 6.999-6.136 0-10.93-2.333-14.38-6.999-3.132-4.155-4.698-9.364-4.698-15.63-1e-5 -5.881 1.694-10.83 5.082-14.86 3.579-4.283 8.277-6.424 14.09-6.424 5.817 5e-5 10.55 2.141 14.19 6.424 3.388 4.027 5.082 8.981 5.082 14.86m-7.67 0c-4e-5 -4.41-0.831-8.054-2.493-10.93-1.982-3.516-5.05-5.369-9.204-5.561-7.67 0.4475-11.51 5.944-11.51 16.49h0.0959c-1e-5 4.858 0.799 8.917 2.397 12.18 2.045 4.155 5.113 6.2 9.204 6.136 7.67-0.0639 11.51-6.168 11.51-18.31m68.45-19.75-11.41 40.27-5.753 2.013-11.03-33.46-9.013 31.45-5.753 2.013-13.52-41.52 6.424-2.301 10.74 32.69 8.533-30.39 6.424-2.301 10.83 32.69 9.204-32.69 4.315 1.534m37.79 37.68c-2.685 1.726-5.082 2.908-7.191 3.548-2.557 0.767-5.146 1.151-7.766 1.151-4.666 0-8.373-1.182-11.12-3.548-4.986-4.219-7.447-10.1-7.383-17.64 0.0639-6.2 1.342-11.31 3.835-15.34 3.004-4.73 7.351-7.095 13.04-7.095 10.61 4e-5 16.01 6.999 16.2 21h-25.7c-0.3835 5.433 0.6392 9.844 3.068 13.23 2.429 3.324 5.625 4.922 9.588 4.794 3.324-0.1278 7.255-1.278 11.79-3.452l1.63 3.356m-7.383-21.96c-2e-5 -3.388-0.7031-6.264-2.109-8.629-1.662-2.685-3.931-4.027-6.807-4.027-5.753 3e-5 -8.949 4.187-9.588 12.56l18.5 0.0959m41.31-17.07c-0.6392 1.278-1.566 3.164-2.78 5.657-1.79-0.3835-3.1-0.5752-3.931-0.5753h-0.0959c-3.835 4e-5 -7.255 1.278-10.26 3.835v33.94h-6.999v-34.9c2.621-2.94 5.944-5.113 9.971-6.52 3.516-1.278 6.648-1.918 9.396-1.918 1.534 4e-5 3.1 0.1598 4.698 0.4794m38.17 39.02c-2.685 1.726-5.082 2.908-7.191 3.548-2.557 0.767-5.146 1.151-7.766 1.151-4.666 0-8.373-1.182-11.12-3.548-4.986-4.219-7.447-10.1-7.383-17.64 0.0639-6.2 1.342-11.31 3.835-15.34 3.004-4.73 7.351-7.095 13.04-7.095 10.61 4e-5 16.01 6.999 16.2 21h-25.7c-0.3835 5.433 0.6392 9.844 3.068 13.23 2.429 3.324 5.625 4.922 9.588 4.794 3.324-0.1278 7.255-1.278 11.79-3.452l1.63 3.356m-7.383-21.96c-3e-5 -3.388-0.7031-6.264-2.109-8.629-1.662-2.685-3.931-4.027-6.807-4.027-5.753 3e-5 -8.949 4.187-9.588 12.56l18.5 0.0959m51.09 19.18c-6.264 4.858-12.98 7.319-20.13 7.383-5.305 0-9.492-2.397-12.56-7.191-2.685-4.155-4.027-9.045-4.027-14.67 0-5.625 1.438-10.58 4.315-14.86 3.26-4.794 7.606-7.159 13.04-7.095 4.155 5e-5 8.341 1.023 12.56 3.068v-24.64l6.711-2.301 0.0959 60.31m-6.807-0.767v-27.23c-4.091-2.557-7.702-3.835-10.83-3.835-3.963 3e-5 -6.967 2.077-9.013 6.232-1.662 3.324-2.493 7.191-2.493 11.6-1e-5 4.219 0.799 7.894 2.397 11.03 1.981 4.091 4.89 6.136 8.725 6.136 3.579 1e-5 7.319-1.31 11.22-3.931"
    fill="#2e597d"
    font-family="FluxRegular"
    font-size="95.88px"
    style="line-height:100%"
    id="path2574" />
 </g>
</svg>
